<?xml version="1.0" encoding="UTF-8"?>
<svg xmlns="http://www.w3.org/2000/svg" xmlns:xlink="http://www.w3.org/1999/xlink" width="188px" height="131px" viewBox="0 0 187 131" version="1.1">
<g id="surface1">
<path style=" stroke:none;fill-rule:evenodd;fill:rgb(0%,21.568627%,39.215686%);fill-opacity:1;" d="M 61.640625 81.566406 C 61.640625 81.566406 63.960938 104.710938 58.179688 122.128906 C 58.179688 122.128906 60.746094 105.527344 56.878906 90.644531 Z M 61.640625 81.566406 "/>
<path style=" stroke:none;fill-rule:nonzero;fill:rgb(0%,21.568627%,39.215686%);fill-opacity:1;" d="M 58.058594 66.644531 C 53.378906 92.15625 33.277344 113.664062 27.5 119.960938 C 39.179688 110.394531 59.28125 90.277344 63.429688 62.472656 C 65.585938 47.960938 65.382812 36.960938 62.453125 26.902344 L 56.675781 28.046875 C 60.214844 38.351562 60.988281 50.820312 58.058594 66.644531 Z M 58.058594 66.644531 "/>
<path style=" stroke:none;fill-rule:evenodd;fill:rgb(0%,21.568627%,39.215686%);fill-opacity:1;" d="M 37.347656 46.527344 C 47.722656 54.5 43.492188 62.230469 41.171875 66.523438 C 38.488281 71.550781 38.082031 74.289062 39.058594 78.5 C 39.546875 80.503906 39.546875 82.714844 38.976562 84.757812 C 37.957031 88.4375 35.71875 91.542969 35.71875 91.542969 L 35.800781 91.460938 C 35.800781 91.460938 43.695312 85.984375 42.515625 78.625 C 41.824219 74.332031 43.492188 71.675781 46.175781 66.6875 C 48.539062 62.351562 50.980469 48.492188 37.347656 46.527344 Z M 37.347656 46.527344 "/>
<path style=" stroke:none;fill-rule:evenodd;fill:rgb(0%,21.568627%,39.215686%);fill-opacity:1;" d="M 16.269531 37.941406 C 16.109375 37.453125 15.90625 37.082031 15.699219 36.390625 C 15.335938 34.875 15.496094 34.015625 16.597656 33.773438 C 17.003906 33.691406 17.859375 33.445312 18.589844 33.324219 C 19.605469 33.117188 20.378906 33.324219 20.707031 34.753906 C 21.683594 38.800781 19.890625 37.492188 22.089844 40.84375 C 24.285156 44.199219 26.890625 48.164062 26.890625 48.164062 C 26.890625 48.164062 29.046875 46.324219 29.738281 43.832031 C 30.347656 41.582031 31.570312 35.980469 39.871094 36.183594 C 39.871094 36.183594 36.167969 38.925781 34.335938 45.097656 C 32.058594 52.742188 25.019531 54.910156 25.019531 54.910156 C 25.019531 54.910156 19.769531 44.566406 18.792969 41.992188 C 17.859375 39.375 16.71875 39.375 16.269531 37.941406 Z M 16.269531 37.941406 "/>
<path style=" stroke:none;fill-rule:evenodd;fill:rgb(0%,21.568627%,39.215686%);fill-opacity:1;" d="M 103.875 19.789062 C 103.875 19.789062 102.042969 17.375 99.726562 17.867188 L 32.058594 32.464844 C 31.894531 32.257812 31.652344 32.097656 31.164062 32.21875 C 29.984375 32.464844 19.605469 34.753906 18.875 34.917969 C 18.140625 35.082031 18.792969 37.371094 19.363281 37.246094 C 19.933594 37.125 30.675781 34.753906 31.652344 34.550781 C 32.222656 34.425781 32.34375 34.140625 32.382812 33.8125 L 95.65625 20.238281 C 97.40625 19.828125 98.546875 20.199219 100.011719 21.996094 C 100.90625 23.101562 102.085938 25.472656 102.085938 25.472656 C 102.085938 25.472656 102.371094 26.125 102.980469 25.882812 L 106.316406 24.734375 C 106.96875 24.492188 106.683594 24 106.683594 24 C 106.683594 24 105.300781 21.589844 103.875 19.789062 Z M 103.875 19.789062 "/>
<path style=" stroke:none;fill-rule:evenodd;fill:rgb(0%,21.568627%,39.215686%);fill-opacity:1;" d="M 34.785156 22.527344 C 35.433594 21.832031 36.492188 21.667969 36.980469 21.464844 C 35.640625 20.15625 31.855469 19.460938 29.699219 23.714844 C 28.761719 25.472656 25.832031 26.414062 24.285156 23.835938 C 24.042969 24.859375 24.976562 29.519531 29.859375 28.539062 C 33.320312 27.84375 32.75 24.285156 34.785156 22.527344 Z M 34.785156 22.527344 "/>
<path style=" stroke:none;fill-rule:evenodd;fill:rgb(0%,21.568627%,39.215686%);fill-opacity:1;" d="M 50.246094 20.035156 C 51.140625 20.8125 50.570312 21.34375 50.246094 21.996094 C 48.457031 25.59375 54.195312 25.105469 54.195312 25.105469 L 53.09375 24 C 52.769531 23.632812 52.566406 23.386719 52.566406 23.058594 C 52.566406 22.894531 52.648438 22.652344 52.808594 22.40625 C 53.257812 21.628906 53.460938 21.015625 53.5 20.484375 C 53.542969 19.503906 53.09375 19.09375 52.402344 18.5625 L 52.320312 18.480469 C 56.714844 16.84375 56.960938 12.550781 56.960938 12.550781 L 49.230469 11.488281 C 46.871094 8.628906 44.101562 7.890625 39.910156 9.609375 C 34.378906 12.265625 34.460938 17.785156 34.460938 17.785156 C 34.460938 17.785156 35.597656 15.535156 37.511719 13.859375 C 40.195312 11.53125 44.265625 9.730469 47.765625 13.984375 C 47.765625 13.984375 52.808594 14.390625 53.460938 14.515625 C 53.460938 14.515625 52.972656 15.824219 52.117188 16.273438 C 49.71875 17.539062 47.601562 16.230469 46.054688 16.476562 C 42.515625 16.96875 41.050781 19.707031 41.050781 19.707031 C 41.050781 19.707031 46.382812 17.089844 50.246094 20.035156 Z M 50.246094 20.035156 "/>
<path style=" stroke:none;fill-rule:nonzero;fill:rgb(0%,21.568627%,39.215686%);fill-opacity:1;" d="M 79.136719 48.574219 C 79.136719 49.105469 79.136719 68.15625 79.136719 68.730469 C 79.664062 68.730469 95.902344 68.730469 96.429688 68.730469 C 96.429688 68.28125 96.429688 66.113281 96.429688 65.703125 C 95.902344 65.703125 82.1875 65.703125 82.1875 65.703125 C 82.1875 65.703125 82.1875 49.144531 82.1875 48.613281 C 81.742188 48.574219 79.585938 48.574219 79.136719 48.574219 Z M 79.136719 48.574219 "/>
<path style=" stroke:none;fill-rule:nonzero;fill:rgb(0%,21.568627%,39.215686%);fill-opacity:1;" d="M 130.851562 48.574219 C 127.882812 48.574219 125.441406 49.472656 123.527344 51.273438 C 121.65625 53.070312 120.679688 55.484375 120.679688 58.386719 C 120.679688 61.328125 121.65625 63.824219 123.570312 65.785156 C 125.480469 67.707031 127.921875 68.6875 130.851562 68.6875 C 130.851562 68.6875 139.804688 68.6875 140.335938 68.6875 C 140.335938 68.15625 140.335938 58.34375 140.335938 57.8125 C 139.804688 57.8125 129.511719 57.8125 128.980469 57.8125 C 128.980469 58.261719 128.980469 60.390625 128.980469 60.839844 C 129.511719 60.839844 137.28125 60.839844 137.28125 60.839844 L 137.28125 65.621094 L 130.851562 65.621094 C 128.820312 65.621094 127.109375 64.96875 125.765625 63.699219 C 124.425781 62.433594 123.773438 60.714844 123.773438 58.671875 C 123.773438 56.585938 124.464844 54.871094 125.765625 53.5625 C 127.109375 52.253906 128.820312 51.558594 130.851562 51.558594 C 130.851562 51.558594 139.847656 51.558594 140.375 51.558594 C 140.375 51.109375 140.375 48.941406 140.375 48.53125 C 139.847656 48.574219 130.851562 48.574219 130.851562 48.574219 Z M 130.851562 48.574219 "/>
<path style=" stroke:none;fill-rule:nonzero;fill:rgb(0%,21.568627%,39.215686%);fill-opacity:1;" d="M 99.113281 48.574219 C 99.113281 49.105469 99.113281 68.15625 99.113281 68.730469 C 99.5625 68.730469 101.71875 68.730469 102.167969 68.730469 C 102.167969 68.199219 102.167969 62.882812 102.167969 62.882812 L 110.304688 62.882812 C 112.542969 62.882812 114.414062 62.269531 115.921875 61.003906 C 117.507812 59.652344 118.320312 57.894531 118.320312 55.726562 C 118.320312 53.5625 117.507812 51.761719 115.960938 50.453125 C 114.496094 49.1875 112.582031 48.53125 110.34375 48.53125 C 110.265625 48.574219 99.644531 48.574219 99.113281 48.574219 Z M 102.167969 51.640625 L 110.875 51.640625 C 112.136719 51.640625 113.195312 52.007812 114.046875 52.742188 C 114.902344 53.480469 115.351562 54.5 115.351562 55.726562 C 115.351562 56.996094 114.902344 57.976562 114.046875 58.753906 C 113.195312 59.488281 112.136719 59.898438 110.875 59.898438 L 102.167969 59.898438 Z M 102.167969 51.640625 "/>
<path style=" stroke:none;fill-rule:nonzero;fill:rgb(0%,21.568627%,39.215686%);fill-opacity:1;" d="M 152.378906 50.167969 C 152.378906 50.167969 152.296875 50.332031 152.257812 50.371094 C 152.257812 50.371094 143.46875 67.914062 143.058594 68.730469 C 143.753906 68.730469 146.195312 68.730469 146.476562 68.730469 C 146.640625 68.445312 149.203125 63.25 149.203125 63.25 L 159.417969 63.25 C 159.417969 63.25 161.980469 68.402344 162.101562 68.6875 C 162.386719 68.6875 164.746094 68.6875 165.441406 68.730469 C 165.074219 67.953125 156.488281 50.371094 156.488281 50.371094 C 156.488281 50.371094 156.367188 50.085938 156.367188 50.085938 C 156.039062 49.433594 155.550781 48.492188 154.371094 48.492188 C 153.273438 48.492188 152.703125 49.59375 152.378906 50.167969 Z M 154.371094 52.988281 L 157.953125 60.226562 L 150.75 60.226562 Z M 154.371094 52.988281 "/>
<path style=" stroke:none;fill-rule:nonzero;fill:rgb(0%,21.568627%,39.215686%);fill-opacity:1;" d="M 66.117188 116.691406 C 65.832031 116.976562 65.503906 117.140625 65.097656 117.140625 C 64.691406 117.140625 64.367188 116.976562 64.082031 116.691406 C 63.796875 116.402344 63.675781 116.078125 63.675781 115.667969 C 63.675781 115.257812 63.835938 114.933594 64.082031 114.644531 C 64.367188 114.359375 64.691406 114.238281 65.097656 114.238281 C 65.503906 114.238281 65.832031 114.359375 66.117188 114.644531 C 66.402344 114.933594 66.523438 115.257812 66.523438 115.667969 C 66.523438 116.035156 66.402344 116.402344 66.117188 116.691406 Z M 64.164062 114.769531 C 63.917969 115.011719 63.796875 115.300781 63.796875 115.667969 C 63.796875 116.035156 63.917969 116.320312 64.164062 116.566406 C 64.40625 116.8125 64.691406 116.933594 65.058594 116.933594 C 65.425781 116.933594 65.707031 116.8125 65.953125 116.566406 C 66.195312 116.320312 66.320312 116.035156 66.320312 115.667969 C 66.320312 115.300781 66.195312 115.011719 65.953125 114.769531 C 65.707031 114.523438 65.425781 114.398438 65.058594 114.398438 C 64.730469 114.398438 64.40625 114.523438 64.164062 114.769531 Z M 65.058594 114.851562 C 65.261719 114.851562 65.382812 114.851562 65.503906 114.890625 C 65.667969 114.972656 65.75 115.09375 65.75 115.300781 C 65.75 115.421875 65.707031 115.546875 65.585938 115.625 C 65.546875 115.667969 65.464844 115.707031 65.34375 115.707031 C 65.464844 115.707031 65.546875 115.789062 65.628906 115.871094 C 65.667969 115.953125 65.707031 116.035156 65.707031 116.117188 L 65.707031 116.238281 C 65.707031 116.28125 65.707031 116.320312 65.707031 116.363281 C 65.707031 116.402344 65.707031 116.445312 65.707031 116.445312 L 65.464844 116.445312 L 65.464844 116.28125 C 65.464844 116.078125 65.425781 115.953125 65.300781 115.914062 C 65.261719 115.871094 65.140625 115.871094 64.976562 115.871094 L 64.773438 115.871094 L 64.773438 116.484375 L 64.488281 116.484375 L 64.488281 114.890625 L 65.058594 114.890625 Z M 65.34375 115.09375 C 65.261719 115.054688 65.140625 115.054688 65.015625 115.054688 L 64.773438 115.054688 L 64.773438 115.625 L 65.015625 115.625 C 65.140625 115.625 65.21875 115.625 65.300781 115.585938 C 65.425781 115.546875 65.464844 115.464844 65.464844 115.339844 C 65.464844 115.21875 65.425781 115.136719 65.34375 115.09375 Z M 65.34375 115.09375 "/>
</g>
</svg>
